<svg width="48" height="48" viewBox="0 0 48 48" fill="none" xmlns="http://www.w3.org/2000/svg">
<path d="M48 24C48 37.2548 37.2548 48 24 48C10.7452 48 0 37.2548 0 24C0 10.7452 10.7452 0 24 0C37.2548 0 48 10.7452 48 24Z" fill="#01FF66"/>
<path d="M14.268 14.2652C14.7504 13.7828 14.7504 13.0007 14.268 12.5183C13.7856 12.0358 13.0034 12.0358 12.521 12.5183C12.0386 13.0007 12.0386 13.7828 12.521 14.2652C13.0034 14.7476 13.7856 14.7476 14.268 14.2652Z" fill="#202020"/>
<path d="M10.8988 31.8597C11.3812 32.3421 11.3812 33.1243 10.8988 33.6067C10.4164 34.0891 9.63426 34.0891 9.15185 33.6067C8.66944 33.1243 8.66944 32.3421 9.15185 31.8597C9.63426 31.3773 10.4164 31.3773 10.8988 31.8597Z" fill="#202020"/>
<path d="M19.5713 31.1734C20.0537 30.691 20.0537 29.9088 19.5713 29.4264C19.0889 28.944 18.3067 28.944 17.8243 29.4264C17.3419 29.9088 17.3419 30.691 17.8243 31.1734C18.3067 31.6558 19.0889 31.6558 19.5713 31.1734Z" fill="#202020"/>
<path d="M35.9803 34.2306C36.4627 34.713 36.4627 35.4951 35.9803 35.9776C35.4979 36.46 34.7157 36.46 34.2333 35.9776C33.7509 35.4951 33.7509 34.713 34.2333 34.2306C34.7157 33.7482 35.4979 33.7482 35.9803 34.2306Z" fill="#202020"/>
<path d="M31.1761 19.5685C31.6586 19.0861 31.6586 18.304 31.1761 17.8216C30.6937 17.3391 29.9116 17.3391 29.4292 17.8216C28.9468 18.304 28.9468 19.0861 29.4292 19.5685C29.9116 20.0509 30.6937 20.0509 31.1761 19.5685Z" fill="#202020"/>
<path d="M33.6094 9.1491C34.0918 9.63151 34.0918 10.4137 33.6094 10.8961C33.127 11.3785 32.3449 11.3785 31.8624 10.8961C31.38 10.4137 31.38 9.63151 31.8624 9.1491C32.3449 8.66669 33.127 8.66669 33.6094 9.1491Z" fill="#202020"/>
<path d="M22.5037 22.5009C23.1239 21.8807 23.1239 20.8751 22.5037 20.2548C21.8834 19.6346 20.8778 19.6346 20.2576 20.2548C19.6373 20.8751 19.6373 21.8807 20.2576 22.5009C20.8778 23.1212 21.8834 23.1212 22.5037 22.5009Z" fill="#202020"/>
<path fill-rule="evenodd" clip-rule="evenodd" d="M14.7196 15.7153C14.5799 15.5755 14.51 15.5056 14.4838 15.425C14.4608 15.3541 14.4608 15.2778 14.4838 15.2069C14.51 15.1263 14.5799 15.0564 14.7196 14.9166L14.9193 14.717C15.0591 14.5772 15.1289 14.5073 15.2095 14.4811C15.2804 14.4581 15.3568 14.4581 15.4277 14.4811C15.5082 14.5073 15.5781 14.5772 15.7179 14.717L16.8253 15.8244C17.3162 16.3153 17.5617 16.5608 17.7731 16.6797L17.8029 16.6965C17.9296 16.7678 17.9929 16.8034 18.0605 16.8266C18.1281 16.8497 18.2 16.8604 18.3437 16.8818L18.3776 16.8869C18.6175 16.9227 19.3394 16.8319 20.7833 16.6505C22.1932 16.4734 23.6672 16.9261 24.7498 18.0087C25.3536 18.6126 26.1649 19.0604 27.0073 18.9204L27.6081 18.8205C27.7052 18.8044 27.7537 18.7963 27.7966 18.7997C27.9118 18.8087 28.0153 18.8735 28.0737 18.9732C28.0954 19.0103 28.1093 19.0575 28.1372 19.1518L28.278 19.6284C28.3278 19.7967 28.3526 19.8809 28.3439 19.9534C28.3356 20.0214 28.3136 20.0745 28.2714 20.1285C28.2264 20.186 28.1414 20.2323 27.9714 20.3249C25.6875 21.5696 25.2366 23.986 28.2437 26.9931L33.6012 32.5836C33.7353 32.7236 33.8024 32.7936 33.8271 32.8735C33.8487 32.9437 33.8479 33.019 33.8248 33.0887C33.7984 33.168 33.7299 33.2366 33.5928 33.3737L33.3763 33.5901C33.2392 33.7272 33.1707 33.7958 33.0914 33.8221C33.0216 33.8453 32.9463 33.8461 32.8761 33.8244C32.7963 33.7998 32.7263 33.7327 32.5863 33.5985L26.9783 28.2235C23.9713 25.2397 21.5675 25.6876 20.3274 27.9682C20.2348 28.1384 20.1885 28.2235 20.131 28.2685C20.0771 28.3108 20.0239 28.3329 19.9558 28.3411C19.8834 28.3499 19.7991 28.325 19.6306 28.2752L19.1545 28.1346C19.0601 28.1067 19.0129 28.0928 18.9758 28.071C18.8761 28.0126 18.8113 27.9091 18.8023 27.7939C18.799 27.7511 18.807 27.7025 18.8232 27.6054L18.923 27.0044C19.063 26.162 18.6153 25.3509 18.0115 24.747C16.9289 23.6644 16.4761 22.1905 16.6533 20.7806C16.8347 19.3368 16.9254 18.6149 16.8896 18.375L16.8845 18.3411C16.8631 18.1974 16.8524 18.1255 16.8293 18.0579C16.8061 17.9903 16.7705 17.927 16.6991 17.8003L16.6823 17.7705C16.5635 17.5591 16.318 17.3136 15.8271 16.8227L14.7196 15.7153ZM19.2571 19.2587C18.0876 20.4304 18.0882 22.3284 19.2591 23.4993C19.448 23.6882 19.6559 23.8466 19.8765 23.9746C20.2955 24.2177 20.7608 24.3509 21.2305 24.3743C22.0475 24.4149 22.8779 24.1232 23.5018 23.4993C24.1257 22.8753 24.4174 22.0449 24.3767 21.228C24.3534 20.7582 24.2201 20.293 23.9771 19.8739C23.8491 19.6533 23.6907 19.4455 23.5018 19.2567C22.3309 18.0858 20.4329 18.0851 19.2612 19.2546L19.2571 19.2587Z" fill="#202020"/>
<path d="M16.5296 31.0448C16.5855 31.2343 16.6135 31.3291 16.598 31.4124C16.5844 31.4856 16.548 31.5527 16.4939 31.604C16.4324 31.6623 16.3376 31.6903 16.1482 31.7463L12.9128 32.7033C12.7232 32.7593 12.6284 32.7874 12.545 32.7719C12.4717 32.7583 12.4046 32.7218 12.3533 32.6677C12.295 32.6062 12.267 32.5113 12.211 32.3217L12.1311 32.0509C12.0751 31.8614 12.0471 31.7666 12.0626 31.6834C12.0763 31.6101 12.1127 31.543 12.1668 31.4918C12.2283 31.4335 12.323 31.4055 12.5125 31.3494L15.7478 30.3925C15.9374 30.3364 16.0322 30.3084 16.1156 30.3239C16.1888 30.3375 16.2559 30.374 16.3072 30.4281C16.3655 30.4896 16.3935 30.5844 16.4496 30.774L16.5296 31.0448Z" fill="#202020"/>
<path d="M32.6703 12.3507C32.6088 12.2924 32.514 12.2644 32.3243 12.2084L32.0535 12.1284C31.864 12.0725 31.7693 12.0445 31.686 12.06C31.6127 12.0736 31.5457 12.1101 31.4944 12.1641C31.4361 12.2256 31.4081 12.3204 31.3521 12.5098L30.3951 15.7452C30.3391 15.9348 30.311 16.0296 30.3265 16.1129C30.3401 16.1862 30.3766 16.2533 30.4307 16.3046C30.4922 16.3629 30.587 16.3909 30.7767 16.4469L31.0475 16.5269C31.2369 16.5829 31.3317 16.6109 31.415 16.5954C31.4883 16.5818 31.5553 16.5453 31.6066 16.4912C31.6649 16.4297 31.6929 16.335 31.749 16.1455L32.7059 12.9101C32.762 12.7205 32.79 12.6257 32.7745 12.5424C32.7609 12.4691 32.7244 12.402 32.6703 12.3507Z" fill="#202020"/>
</svg>
